<svg width="21" height="22" viewBox="0 0 21 22" fill="none" xmlns="http://www.w3.org/2000/svg">
<g clip-path="url(#clip0_422_4445)">
<path d="M0.952832 10.9492C0.952367 12.6673 1.39111 14.3449 2.22537 15.8235L0.873047 20.8756L5.926 19.52C7.32358 20.2985 8.88946 20.7064 10.4807 20.7065H10.4849C15.7379 20.7065 20.014 16.3328 20.0163 10.9569C20.0173 8.3519 19.0267 5.90233 17.227 4.05941C15.4276 2.21664 13.0344 1.20126 10.4845 1.20007C5.23086 1.20007 0.955078 5.57357 0.952909 10.9492" fill="url(#paint0_linear_422_4445)"/>
<path d="M0.61218 10.9459C0.611638 12.7258 1.0661 14.4634 1.93011 15.995L0.529297 21.2282L5.76343 19.8239C7.2056 20.6285 8.82935 21.0527 10.4816 21.0533H10.4859C15.9274 21.0533 20.3571 16.5223 20.3594 10.9539C20.3603 8.25535 19.3341 5.71773 17.4701 3.80878C15.6058 1.90008 13.1271 0.848156 10.4859 0.847046C5.04343 0.847046 0.614349 5.37747 0.61218 10.9459ZM3.72922 15.7312L3.53379 15.4138C2.71223 14.0771 2.2786 12.5325 2.27922 10.9465C2.28101 6.31819 5.96227 2.55269 10.489 2.55269C12.6811 2.55364 14.7413 3.42802 16.2908 5.01447C17.8403 6.60107 18.6929 8.71014 18.6923 10.9533C18.6903 15.5816 15.009 19.3476 10.4859 19.3476H10.4826C9.00983 19.3468 7.56541 18.9421 6.30574 18.1773L6.00596 17.9954L2.89992 18.8287L3.72922 15.7311V15.7312Z" fill="url(#paint1_linear_422_4445)"/>
<path d="M8.018 6.72389C7.83318 6.30359 7.63867 6.2951 7.46291 6.28773C7.31899 6.28139 7.15446 6.28187 6.99009 6.28187C6.82556 6.28187 6.55824 6.3452 6.33229 6.59764C6.1061 6.85031 5.46875 7.46092 5.46875 8.70282C5.46875 9.94481 6.35282 11.145 6.47606 11.3136C6.59945 11.4819 8.18276 14.112 10.6903 15.1238C12.7744 15.9647 13.1985 15.7974 13.6507 15.7553C14.1031 15.7133 15.1104 15.1448 15.3159 14.5554C15.5216 13.966 15.5216 13.4608 15.4599 13.3552C15.3983 13.2501 15.2337 13.1869 14.987 13.0607C14.7402 12.9344 13.5274 12.3238 13.3012 12.2395C13.0751 12.1553 12.9106 12.1133 12.7461 12.3661C12.5816 12.6184 12.1091 13.1869 11.9651 13.3552C11.8213 13.524 11.6773 13.545 11.4306 13.4187C11.1838 13.2921 10.3892 13.0258 9.44662 12.166C8.71321 11.4968 8.21808 10.6706 8.07416 10.4178C7.93024 10.1655 8.05874 10.0287 8.18245 9.90288C8.2933 9.78978 8.42924 9.60812 8.55271 9.46077C8.67572 9.31335 8.71678 9.20818 8.79904 9.03983C8.88138 8.87133 8.84017 8.72391 8.77859 8.59765C8.71678 8.47139 8.23737 7.22299 8.018 6.72389Z" fill="white"/>
</g>
<defs>
<linearGradient id="paint0_linear_422_4445" x1="958.035" y1="1968.76" x2="958.035" y2="1.20007" gradientUnits="userSpaceOnUse">
<stop stop-color="#1FAF38"/>
<stop offset="1" stop-color="#60D669"/>
</linearGradient>
<linearGradient id="paint1_linear_422_4445" x1="992.033" y1="2038.96" x2="992.033" y2="0.847046" gradientUnits="userSpaceOnUse">
<stop stop-color="#F9F9F9"/>
<stop offset="1" stop-color="white"/>
</linearGradient>
<clipPath id="clip0_422_4445">
<rect width="19.8301" height="20.4487" fill="white" transform="translate(0.529297 0.847046)"/>
</clipPath>
</defs>
</svg>
